<svg width="25" height="24" viewBox="0 0 25 24" fill="none" xmlns="http://www.w3.org/2000/svg">
<path d="M16.5 9.75H8.5C7.81 9.75 7.25 10.31 7.25 11V12.05C7.28 12.04 7.3 12.03 7.33 12.02C7.45 11.96 7.58 11.92 7.71 11.88C7.77 11.86 7.83 11.84 7.9 11.82C8.1 11.78 8.3 11.75 8.51 11.75H16.51C16.72 11.75 16.92 11.78 17.12 11.82C17.18 11.83 17.24 11.86 17.31 11.88C17.44 11.92 17.57 11.96 17.69 12.02C17.72 12.03 17.75 12.04 17.77 12.05V11C17.75 10.31 17.19 9.75 16.5 9.75Z" fill="#DBC69D"/>
<path d="M16.5 13.25H8.5C7.81 13.25 7.25 13.81 7.25 14.5V15H10C10.41 15 10.75 15.34 10.75 15.75C10.75 16.71 11.54 17.5 12.5 17.5C13.46 17.5 14.25 16.71 14.25 15.75C14.25 15.34 14.59 15 15 15H17.75V14.5C17.75 13.81 17.19 13.25 16.5 13.25Z" fill="#DBC69D"/>
<path d="M16.5 6.5H8.5C7.81 6.5 7.25 7.06 7.25 7.75V8.56C7.63 8.37 8.05 8.25 8.5 8.25H16.5C16.95 8.25 17.37 8.37 17.75 8.56V7.75C17.75 7.06 17.19 6.5 16.5 6.5Z" fill="#DBC69D"/>
<path d="M16.69 2H8.31C4.67 2 2.5 4.17 2.5 7.81V16.18C2.5 19.83 4.67 22 8.31 22H16.68C20.32 22 22.49 19.83 22.49 16.19V7.81C22.5 4.17 20.33 2 16.69 2ZM19.5 16.5H18.5H15.66C15.32 17.93 14.03 19 12.5 19C10.97 19 9.68 17.93 9.34 16.5H6.5H5.5C5.09 16.5 4.75 16.16 4.75 15.75C4.75 15.34 5.09 15 5.5 15H5.75V14.5V14V11V7.75C5.75 6.23 6.98 5 8.5 5H16.5C18.02 5 19.25 6.23 19.25 7.75V11V14V14.5V15H19.5C19.91 15 20.25 15.34 20.25 15.75C20.25 16.16 19.91 16.5 19.5 16.5Z" fill="#DBC69D"/>
</svg>
