<svg width="75" height="74" viewBox="0 0 75 74" fill="none" xmlns="http://www.w3.org/2000/svg">
<path d="M6.6664 25.7146V48.2846C6.6664 52.9096 11.6922 55.808 15.7005 53.4955L25.4748 47.8838L35.2489 42.2413C35.8655 41.8713 36.3589 41.4705 36.7598 40.9772V33.0838C36.3589 32.5905 35.8655 32.1896 35.2489 31.8196L25.4748 26.1771L15.7005 20.5655C11.6922 18.1913 6.6664 21.0896 6.6664 25.7146Z" stroke="#B7B7B7" stroke-width="1.5" stroke-linecap="round" stroke-linejoin="round"/>
<path d="M36.7609 25.7146V48.2846C36.7609 52.9096 41.7867 55.808 45.795 53.4955L55.5692 47.8838L65.3434 42.2413C69.3517 39.9288 69.3517 34.163 65.3434 31.8196L55.5692 26.1771L45.795 20.5655C41.7867 18.1913 36.7609 21.0896 36.7609 25.7146Z" stroke="#B7B7B7" stroke-width="1.5" stroke-linecap="round" stroke-linejoin="round"/>
</svg>
