<svg width="75" height="74" viewBox="0 0 75 74" fill="none" xmlns="http://www.w3.org/2000/svg">
<g id="vuesax/bulk/backward">
<g id="backward">
<path id="Vector" opacity="0.4" d="M34.9989 41.7778L35.0008 41.7767L36.2598 41.0574V32.9427L35.0008 32.2233L34.9989 32.2222L25.2248 26.5797L15.4507 20.9373C15.4506 20.9372 15.4506 20.9372 15.4506 20.9372C11.7749 18.8167 7.1664 21.4757 7.1664 25.715V48.285C7.1664 52.5243 11.7749 55.1833 15.4506 53.0628C15.4506 53.0628 15.4506 53.0628 15.4507 53.0628L25.2248 47.4203L34.9989 41.7778Z" fill="#F0C87D" stroke="#B7B7B7"/>
<path id="Vector_2" d="M36.7606 25.715V48.285C36.7606 52.91 41.7864 55.8084 45.7639 53.4959L55.5688 47.8533L65.343 42.2109C69.3205 39.8984 69.3205 34.1017 65.343 31.7892L55.5688 26.1467L45.7639 20.5042C41.7864 18.1917 36.7606 21.09 36.7606 25.715Z" fill="#AE9056"/>
</g>
</g>
</svg>
