<svg width="19" height="18" viewBox="0 0 19 18" fill="none" xmlns="http://www.w3.org/2000/svg">
<path d="M17 12.5553V3.50276C17 2.60276 16.265 1.93526 15.3725 2.01026H15.3275C13.7525 2.14526 11.36 2.94776 10.025 3.78776L9.8975 3.87026C9.68 4.00526 9.32 4.00526 9.1025 3.87026L8.915 3.75776C7.58 2.92526 5.195 2.13026 3.62 2.00276C2.7275 1.92776 2 2.60276 2 3.49526V12.5553C2 13.2753 2.585 13.9503 3.305 14.0403L3.5225 14.0703C5.15 14.2878 7.6625 15.1128 9.1025 15.9003L9.1325 15.9153C9.335 16.0278 9.6575 16.0278 9.8525 15.9153C11.2925 15.1203 13.8125 14.2878 15.4475 14.0703L15.695 14.0403C16.415 13.9503 17 13.2753 17 12.5553Z" stroke="white" stroke-width="1.5" stroke-linecap="round" stroke-linejoin="round"/>
<path d="M9.5 4.11719V15.3672" stroke="white" stroke-width="1.5" stroke-linecap="round" stroke-linejoin="round"/>
<path d="M6.3125 6.36719H4.625" stroke="white" stroke-width="1.5" stroke-linecap="round" stroke-linejoin="round"/>
<path d="M6.875 8.61719H4.625" stroke="white" stroke-width="1.5" stroke-linecap="round" stroke-linejoin="round"/>
</svg>
