<svg width="25" height="24" viewBox="0 0 25 24" fill="none" xmlns="http://www.w3.org/2000/svg">
<path d="M12.5 2C6.98 2 2.5 6.48 2.5 12C2.5 17.52 6.98 22 12.5 22C18.02 22 22.5 17.52 22.5 12C22.5 6.48 18.02 2 12.5 2ZM12.5 8.75C12.09 8.75 11.75 8.41 11.75 8C11.75 7.59 12.09 7.25 12.5 7.25C15.12 7.25 17.25 9.38 17.25 12C17.25 14.62 15.12 16.75 12.5 16.75C12.09 16.75 11.75 16.41 11.75 16C11.75 15.59 12.09 15.25 12.5 15.25C14.29 15.25 15.75 13.79 15.75 12C15.75 10.21 14.29 8.75 12.5 8.75ZM12.5 19.75C8.23 19.75 4.75 16.27 4.75 12C4.75 11.59 5.09 11.25 5.5 11.25C5.91 11.25 6.25 11.59 6.25 12C6.25 15.45 9.05 18.25 12.5 18.25C15.95 18.25 18.75 15.45 18.75 12C18.75 8.55 15.95 5.75 12.5 5.75C12.09 5.75 11.75 5.41 11.75 5C11.75 4.59 12.09 4.25 12.5 4.25C16.77 4.25 20.25 7.73 20.25 12C20.25 16.27 16.77 19.75 12.5 19.75Z" fill="url(#paint0_linear_1362_16900)"/>
<defs>
<linearGradient id="paint0_linear_1362_16900" x1="22.5" y1="22" x2="3.67647" y2="22" gradientUnits="userSpaceOnUse">
<stop stop-color="#DBC69D"/>
<stop offset="1" stop-color="#FCECD0"/>
</linearGradient>
</defs>
</svg>
