<svg width="25" height="24" viewBox="0 0 25 24" fill="none" xmlns="http://www.w3.org/2000/svg">
<path d="M12.32 6.9C15.18 6.28 18.08 6.19 20.95 6.66C19.18 3.86 16.06 2 12.5 2C9.39002 2 6.61002 3.42 4.77002 5.65C5.21002 6.95 5.77002 8.19 6.44002 9.37C6.82002 10.05 7.79002 10.02 8.18002 9.35C9.03002 7.92 10.56 6.96 12.32 6.9Z" fill="url(#paint0_linear_1362_16891)"/>
<path d="M8.22002 14.7204C6.22002 12.5804 4.66002 10.1404 3.59002 7.44043C2.09002 10.4004 2.10002 14.0304 3.93002 17.0804C5.53002 19.7504 8.17002 21.4104 11.03 21.8404C11.92 20.7904 12.7 19.6704 13.37 18.5004C13.76 17.8204 13.23 17.0104 12.45 17.0104C10.78 17.0204 9.17002 16.2004 8.22002 14.7204Z" fill="url(#paint1_linear_1362_16891)"/>
<path d="M9.06982 12.0001C9.06982 12.6101 9.21982 13.1801 9.52982 13.7201C10.1398 14.7701 11.2698 15.4301 12.4898 15.4301C13.7098 15.4301 14.8498 14.7701 15.4498 13.7201C15.7598 13.1801 15.9198 12.6101 15.9198 12.0001C15.9198 10.1101 14.3798 8.58013 12.4898 8.58013C10.6098 8.57013 9.06982 10.1101 9.06982 12.0001Z" fill="url(#paint2_linear_1362_16891)"/>
<path d="M21.8402 8.42028C20.4702 8.13028 19.0802 7.97028 17.7002 7.95028C16.9102 7.94028 16.4602 8.80028 16.8502 9.49028C17.2502 10.2003 17.4802 11.0203 17.4802 11.8903C17.4802 12.7303 17.2602 13.5603 16.8502 14.3003C15.9102 17.1803 14.5102 19.7403 12.6602 22.0003C18.1102 21.9103 22.5002 17.4703 22.5002 12.0003C22.5002 10.7403 22.2702 9.53028 21.8402 8.42028Z" fill="url(#paint3_linear_1362_16891)"/>
<defs>
<linearGradient id="paint0_linear_1362_16891" x1="20.95" y1="9.86642" x2="5.72178" y2="9.86642" gradientUnits="userSpaceOnUse">
<stop stop-color="#DBC69D"/>
<stop offset="1" stop-color="#FCECD0"/>
</linearGradient>
<linearGradient id="paint1_linear_1362_16891" x1="13.5013" y1="21.8404" x2="3.15449" y2="21.8404" gradientUnits="userSpaceOnUse">
<stop stop-color="#DBC69D"/>
<stop offset="1" stop-color="#FCECD0"/>
</linearGradient>
<linearGradient id="paint2_linear_1362_16891" x1="15.9198" y1="15.4301" x2="9.47277" y2="15.4301" gradientUnits="userSpaceOnUse">
<stop stop-color="#DBC69D"/>
<stop offset="1" stop-color="#FCECD0"/>
</linearGradient>
<linearGradient id="paint3_linear_1362_16891" x1="22.5002" y1="22.0003" x2="13.239" y2="22.0003" gradientUnits="userSpaceOnUse">
<stop stop-color="#DBC69D"/>
<stop offset="1" stop-color="#FCECD0"/>
</linearGradient>
</defs>
</svg>
