<svg width="32" height="32" viewBox="0 0 32 32" fill="none" xmlns="http://www.w3.org/2000/svg">
<g id="vuesax/bold/facebook">
<g id="facebook">
<path id="Vector" d="M29.3332 21.587C29.3332 26.4403 26.4398 29.3337 21.5865 29.3337H19.9998C19.2665 29.3337 18.6665 28.7337 18.6665 28.0003V20.307C18.6665 19.947 18.9598 19.6403 19.3198 19.6403L21.6665 19.6003C21.8532 19.587 22.0132 19.4537 22.0532 19.267L22.5199 16.7203C22.5599 16.4803 22.3732 16.2537 22.1198 16.2537L19.2798 16.2937C18.9065 16.2937 18.6132 16.0003 18.5999 15.6403L18.5465 12.3737C18.5465 12.1603 18.7198 11.9737 18.9465 11.9737L22.1465 11.9203C22.3731 11.9203 22.5465 11.747 22.5465 11.5203L22.4932 8.32031C22.4932 8.09365 22.3198 7.92033 22.0932 7.92033L18.4932 7.97367C16.2798 8.01367 14.5199 9.82699 14.5599 12.0403L14.6265 15.707C14.6398 16.0803 14.3465 16.3737 13.9732 16.387L12.3732 16.4137C12.1465 16.4137 11.9732 16.587 11.9732 16.8136L12.0132 19.347C12.0132 19.5737 12.1865 19.747 12.4132 19.747L14.0132 19.7203C14.3865 19.7203 14.6798 20.0137 14.6932 20.3737L14.8132 27.9737C14.8265 28.7203 14.2265 29.3337 13.4798 29.3337H10.4132C5.55983 29.3337 2.6665 26.4403 2.6665 21.5736V10.4137C2.6665 5.56032 5.55983 2.66699 10.4132 2.66699H21.5865C26.4398 2.66699 29.3332 5.56032 29.3332 10.4137V21.587Z" fill="#B7B7B7"/>
</g>
</g>
</svg>
