<svg width="32" height="32" viewBox="0 0 32 32" fill="none" xmlns="http://www.w3.org/2000/svg">
<g id="vuesax/bold/instagram">
<g id="vuesax/bold/instagram_2">
<g id="instagram">
<path id="Vector" d="M21.588 2.66797H10.4146C5.5613 2.66797 2.66797 5.5613 2.66797 10.4146V21.5746C2.66797 26.4413 5.5613 29.3346 10.4146 29.3346H21.5746C26.428 29.3346 29.3213 26.4413 29.3213 21.588V10.4146C29.3346 5.5613 26.4413 2.66797 21.588 2.66797ZM16.0013 21.1746C13.148 21.1746 10.828 18.8546 10.828 16.0013C10.828 13.148 13.148 10.828 16.0013 10.828C18.8546 10.828 21.1746 13.148 21.1746 16.0013C21.1746 18.8546 18.8546 21.1746 16.0013 21.1746ZM23.8946 9.17464C23.828 9.33464 23.7346 9.4813 23.6146 9.61463C23.4813 9.73463 23.3346 9.82797 23.1746 9.89464C23.0146 9.9613 22.8413 10.0013 22.668 10.0013C22.308 10.0013 21.9746 9.86797 21.7213 9.61463C21.6013 9.4813 21.508 9.33464 21.4413 9.17464C21.3746 9.01464 21.3346 8.8413 21.3346 8.66797C21.3346 8.49464 21.3746 8.3213 21.4413 8.1613C21.508 7.98797 21.6013 7.85464 21.7213 7.7213C22.028 7.41464 22.4946 7.26797 22.9213 7.3613C23.0146 7.37464 23.0946 7.4013 23.1746 7.4413C23.2546 7.46797 23.3346 7.50797 23.4146 7.5613C23.4813 7.6013 23.548 7.66797 23.6146 7.7213C23.7346 7.85464 23.828 7.98797 23.8946 8.1613C23.9613 8.3213 24.0013 8.49464 24.0013 8.66797C24.0013 8.8413 23.9613 9.01464 23.8946 9.17464Z" fill="#B7B7B7"/>
</g>
</g>
</g>
</svg>
